<svg xmlns="http://www.w3.org/2000/svg" viewBox="0 0 420 100" role="img" aria-label="GoldMeta">
  <!-- Header logo: mark + wordmark only -->
  <g transform="translate(2,2) scale(0.38)">
    <path d="M158.9 32.9A86 86 0 1 0 223.1 97.1" fill="none" stroke="#11284A" stroke-width="28" stroke-linecap="butt"/>
    <path d="M76 178V88h23l19 54 19-54h23v52l26-40v66h-21v-38L142 178h-16L104 132v46H76z" fill="#D8A33D"/>
    <path d="M168 114l46-62 16 14-38 42h42v16H168z" fill="#D8A33D"/>
    <rect x="106" y="68" width="9" height="22" rx="2" fill="#D8A33D"/>
    <rect x="120" y="54" width="9" height="36" rx="2" fill="#D8A33D"/>
    <rect x="134" y="38" width="9" height="52" rx="2" fill="#D8A33D"/>
  </g>
  <text x="112" y="62" font-family="Inter, ui-sans-serif, system-ui, sans-serif" font-size="36" font-weight="780" letter-spacing="0.04em" fill="#11284A">GoldMeta</text>
</svg>
